# Blender v2.82 (sub 7) OBJ File: ''
# www.blender.org
mtllib simpleTree.mtl
o Cube
v 1.000000 13.183340 -1.000000
v 1.000000 0.070220 -1.000000
v 1.000000 13.183340 1.000000
v 1.000000 0.070220 1.000000
v -1.000000 13.183340 -1.000000
v -1.000000 0.070220 -1.000000
v -1.000000 13.183340 1.000000
v -1.000000 0.070220 1.000000
vt 0.625000 0.500000
vt 0.875000 0.500000
vt 0.875000 0.750000
vt 0.625000 0.750000
vt 0.000100 0.999900
vt 0.000100 0.000100
vt 0.999900 0.000100
vt 0.999900 0.999900
vt 0.999900 0.000100
vt 0.999900 0.999900
vt 0.000100 0.999900
vt 0.000100 0.000100
vt 0.125000 0.500000
vt 0.375000 0.500000
vt 0.375000 0.750000
vt 0.125000 0.750000
vt 0.000100 0.999900
vt 0.000100 0.000100
vt 0.999900 0.000100
vt 0.999900 0.999900
vt 0.999900 0.000100
vt 0.999900 0.999900
vt 0.000100 0.999900
vt 0.000100 0.000100
vn 0.0000 1.0000 0.0000
vn 0.0000 0.0000 1.0000
vn -1.0000 0.0000 0.0000
vn 0.0000 -1.0000 0.0000
vn 1.0000 0.0000 0.0000
vn 0.0000 0.0000 -1.0000
usemtl bark
s off
f 1/1/1 5/2/1 7/3/1 3/4/1
f 4/5/2 3/6/2 7/7/2 8/8/2
f 8/9/3 7/10/3 5/11/3 6/12/3
f 6/13/4 2/14/4 4/15/4 8/16/4
f 2/17/5 1/18/5 3/19/5 4/20/5
f 6/21/6 5/22/6 1/23/6 2/24/6
o Cube.001
v -7.615578 13.571438 7.615578
v -7.615578 28.802593 7.615578
v -7.615578 13.571438 -7.615578
v -7.615578 28.802593 -7.615578
v 7.615578 13.571438 7.615578
v 7.615578 28.802593 7.615578
v 7.615578 13.571438 -7.615578
v 7.615578 28.802593 -7.615578
vt 0.999900 0.000100
vt 0.999900 0.999900
vt 0.000100 0.999900
vt 0.000100 0.000100
vt 0.999900 0.000100
vt 0.999900 0.999900
vt 0.000100 0.999900
vt 0.000100 0.000100
vt 0.000100 0.999900
vt 0.000100 0.000100
vt 0.999900 0.000100
vt 0.999900 0.999900
vt 0.000100 0.999900
vt 0.000100 0.000100
vt 0.999900 0.000100
vt 0.999900 0.999900
vt 0.999900 0.000100
vt 0.000100 0.999900
vt 0.999900 0.000100
vt 0.000100 0.999900
vn -1.0000 0.0000 0.0000
vn 0.0000 0.0000 -1.0000
vn 1.0000 0.0000 0.0000
vn 0.0000 0.0000 1.0000
vn 0.0000 -1.0000 0.0000
vn 0.0000 1.0000 0.0000
usemtl leaf
s off
f 9/25/7 10/26/7 12/27/7 11/28/7
f 11/29/8 12/30/8 16/31/8 15/32/8
f 15/33/9 16/34/9 14/35/9 13/36/9
f 13/37/10 14/38/10 10/39/10 9/40/10
f 11/28/11 15/41/11 13/36/11 9/42/11
f 16/34/12 12/43/12 10/26/12 14/44/12
