# Blender v2.82 (sub 7) OBJ File: 'skyBoxCube.blend'
# www.blender.org
mtllib skyBoxCube.mtl
o Cube
v 1.000000 1.000000 -1.000000
v 1.000000 -1.000000 -1.000000
v 1.000000 1.000000 1.000000
v 1.000000 -1.000000 1.000000
v -1.000000 1.000000 -1.000000
v -1.000000 -1.000000 -1.000000
v -1.000000 1.000000 1.000000
v -1.000000 -1.000000 1.000000
vt 0.001636 1.001431
vt -0.001431 0.001636
vt 0.998364 -0.001431
vt 1.001431 0.998364
vt -0.001202 0.998595
vt 0.001405 -0.001202
vt 1.001201 0.001405
vt 0.998595 1.001201
vt 0.000534 1.000334
vt -0.000334 0.000534
vt 0.999466 -0.000334
vt 1.000334 0.999466
vt -0.000051 0.999749
vt 0.000251 -0.000051
vt 1.000050 0.000251
vt 0.999749 1.000051
vt 0.000100 0.000100
vt 0.999900 0.000100
vt 0.999900 0.999900
vt 0.000100 0.999900
vt 0.996453 1.003323
vt -0.003323 0.996454
vt 0.003547 -0.003323
vt 1.003323 0.003547
vn 0.0000 0.0000 -1.0000
vn 1.0000 0.0000 0.0000
vn 0.0000 0.0000 1.0000
vn -1.0000 0.0000 0.0000
vn 0.0000 -1.0000 0.0000
vn 0.0000 1.0000 0.0000
usemtl skyBox_Front
s off
f 6/1/1 5/2/1 1/3/1 2/4/1
usemtl skyBox_Left
f 2/5/2 1/6/2 3/7/2 4/8/2
usemtl skyBox_Back
f 4/9/3 3/10/3 7/11/3 8/12/3
usemtl skyBox_Right
f 8/13/4 7/14/4 5/15/4 6/16/4
usemtl skyBox_Top
f 6/17/5 2/18/5 4/19/5 8/20/5
usemtl skyBox_Bottom
f 1/21/6 5/22/6 7/23/6 3/24/6
