# Blender v2.82 (sub 7) OBJ File: ''
# www.blender.org
mtllib surfaceCubeGrass.mtl
o Cube
v 1.000000 1.000000 -1.000000
v 1.000000 0.000000 -1.000000
v 1.000000 1.000000 0.000000
v 1.000000 0.000000 0.000000
v 0.000000 1.000000 -1.000000
v 0.000000 0.000000 -1.000000
v 0.000000 1.000000 0.000000
v 0.000000 0.000000 0.000000
vt 0.999541 -0.000259
vt 1.000259 0.999541
vt 0.000459 1.000259
vt -0.000259 0.000459
vt 1.004633 0.004878
vt 0.995122 1.004633
vt -0.004633 0.995121
vt 0.004878 -0.004633
vt 1.001761 0.001969
vt 0.998031 1.001761
vt -0.001761 0.998031
vt 0.001968 -0.001761
vt 0.999460 -0.000339
vt 1.000339 0.999460
vt 0.000540 1.000339
vt -0.000339 0.000540
vt 0.000100 0.000100
vt 0.999900 0.000100
vt 0.999900 0.999900
vt 0.000100 0.999900
vt 0.000100 0.000100
vt 0.999900 0.000100
vt 0.999900 0.999900
vt 0.000100 0.999900
vn 0.0000 0.0000 1.0000
vn -1.0000 0.0000 0.0000
vn 1.0000 0.0000 0.0000
vn 0.0000 0.0000 -1.0000
vn 0.0000 1.0000 0.0000
vn 0.0000 -1.0000 0.0000
usemtl dirtGrass
s off
f 4/1/1 3/2/1 7/3/1 8/4/1
f 8/5/2 7/6/2 5/7/2 6/8/2
f 2/9/3 1/10/3 3/11/3 4/12/3
f 6/13/4 5/14/4 1/15/4 2/16/4
usemtl grass
f 1/17/5 5/18/5 7/19/5 3/20/5
usemtl dirt
f 6/21/6 2/22/6 4/23/6 8/24/6
